<svg width="95" height="92" viewBox="0 0 95 92" fill="none" xmlns="http://www.w3.org/2000/svg">
<path d="M47.01 1.94171C48.5942 1.94171 50.2683 2.91931 51.9387 5.07062C53.599 7.20887 55.1381 10.365 56.4485 14.3548C59.0658 22.3241 60.7014 33.3973 60.7014 45.6732C60.7014 57.9488 59.0657 69.0213 56.4485 76.9905C55.1381 80.9805 53.599 84.1374 51.9387 86.2757C50.2683 88.427 48.5942 89.4046 47.01 89.4046C45.4259 89.4045 43.7526 88.4268 42.0823 86.2757C40.4219 84.1374 38.8829 80.9806 37.5725 76.9905C34.9553 69.0213 33.3196 57.9488 33.3196 45.6732C33.3196 33.3973 34.9552 22.3241 37.5725 14.3548C38.8829 10.365 40.422 7.20885 42.0823 5.07062C43.7526 2.91944 45.4259 1.94183 47.01 1.94171Z" stroke="url(#paint0_linear_42_99)" stroke-width="2"/>
<path d="M93.0205 45.2025C93.0204 46.6735 92.0347 48.2703 89.7812 49.8881C87.5517 51.4887 84.261 52.9717 80.1045 54.2338C71.8038 56.7542 60.2761 58.3275 47.5 58.3275C34.7239 58.3275 23.1962 56.7542 14.8955 54.2338C10.7391 52.9717 7.44836 51.4886 5.21875 49.8881C2.9653 48.2703 1.97962 46.6735 1.97949 45.2025C1.97949 43.7314 2.96515 42.1338 5.21875 40.516C7.44836 38.9155 10.7392 37.4323 14.8955 36.1703C23.1962 33.6499 34.724 32.0765 47.5 32.0765C60.2761 32.0765 71.8038 33.6498 80.1045 36.1703C84.2609 37.4324 87.5516 38.9154 89.7812 40.516C92.0348 42.1338 93.0205 43.7314 93.0205 45.2025Z" stroke="url(#paint1_linear_42_99)" stroke-width="2"/>
<path d="M47.0103 16.9508L51.9966 40.4078L76.3918 45.2022L51.9966 49.9967L47.0103 73.4536L42.0241 49.9967L17.6289 45.2022L42.0241 40.4078L47.0103 16.9508Z" fill="url(#paint2_linear_42_99)" stroke="#F8F0FD" stroke-width="1.5"/>
<defs>
<linearGradient id="paint0_linear_42_99" x1="32.3196" y1="45.6731" x2="58.7528" y2="42.166" gradientUnits="userSpaceOnUse">
<stop stop-color="#FF62B7"/>
<stop offset="1" stop-color="#9F53FF"/>
</linearGradient>
<linearGradient id="paint1_linear_42_99" x1="47.4999" y1="31.0765" x2="50.6255" y2="56.5571" gradientUnits="userSpaceOnUse">
<stop stop-color="#FF62B7"/>
<stop offset="1" stop-color="#9F53FF"/>
</linearGradient>
<linearGradient id="paint2_linear_42_99" x1="17.6289" y1="45.2022" x2="63.3544" y2="25.991" gradientUnits="userSpaceOnUse">
<stop stop-color="#FF62B7"/>
<stop offset="1" stop-color="#9F53FF"/>
</linearGradient>
</defs>
</svg>
