<svg width="13" height="13" viewBox="0 0 13 13" fill="none" xmlns="http://www.w3.org/2000/svg">
<path d="M6.49992 1.08325C9.48992 1.08325 11.9166 3.50992 11.9166 6.49992C11.9166 9.48992 9.48992 11.9166 6.49992 11.9166C3.50992 11.9166 1.08325 9.48992 1.08325 6.49992C1.08325 3.50992 3.50992 1.08325 6.49992 1.08325ZM6.49992 2.16659C4.10575 2.16659 2.16659 4.10575 2.16659 6.49992C2.16659 8.89408 4.10575 10.8333 6.49992 10.8333C8.89408 10.8333 10.8333 8.89408 10.8333 6.49992C10.8333 4.10575 8.89408 2.16659 6.49992 2.16659ZM6.49992 3.79158C7.48575 3.79158 8.34863 4.31863 8.82258 5.10675L7.89417 5.66413C7.74806 5.42051 7.54064 5.21945 7.29259 5.08099C7.04454 4.94254 6.76453 4.87153 6.48048 4.87504C6.19643 4.87856 5.91826 4.95647 5.67371 5.10102C5.42917 5.24557 5.22679 5.4517 5.08675 5.69886C4.94671 5.94602 4.87391 6.22557 4.87561 6.50964C4.87731 6.79371 4.95345 7.07237 5.09643 7.31783C5.23941 7.5633 5.44425 7.76699 5.69051 7.90861C5.93677 8.05022 6.21585 8.1248 6.49992 8.12492C6.78057 8.1251 7.05649 8.05254 7.30075 7.91432C7.54501 7.7761 7.74927 7.57694 7.89363 7.33625L8.82258 7.89308C8.51818 8.4015 8.05539 8.79603 7.50521 9.01615C6.95503 9.23627 6.34783 9.26983 5.77674 9.11169C5.20565 8.95354 4.7022 8.61242 4.34362 8.14065C3.98503 7.66888 3.79111 7.0925 3.79158 6.49992C3.79159 5.00492 5.00492 3.79158 6.49992 3.79158Z" fill="#A197B4"/>
</svg>
