<svg width="22" height="29" viewBox="0 0 22 29" fill="none" xmlns="http://www.w3.org/2000/svg">
<path d="M8.96133 9.72L6.52133 10.608V15.3333H3.85467V8.73333H3.87467L10.8987 6.176C11.224 6.052 11.5787 5.98933 11.9413 6.00133C12.666 6.0194 13.367 6.26281 13.947 6.69771C14.5269 7.13261 14.957 7.7374 15.1773 8.428C15.4253 9.20533 15.652 9.73067 15.8573 10.004C16.4779 10.8315 17.2828 11.503 18.2081 11.9652C19.1334 12.4274 20.1537 12.6675 21.188 12.6667V15.3333C19.8111 15.3348 18.4509 15.031 17.2055 14.4438C15.96 13.8566 14.8603 13.0006 13.9853 11.9373L13.2107 16.3333L15.8547 18.8933V28.6667H13.188V20.6853L10.4547 18.036L9.192 23.7667L0 22.1467L0.464 19.52L7.02933 20.6773L8.96133 9.72ZM13.8547 5.33333C13.1474 5.33333 12.4691 5.05238 11.969 4.55228C11.469 4.05219 11.188 3.37391 11.188 2.66667C11.188 1.95942 11.469 1.28115 11.969 0.781048C12.4691 0.280951 13.1474 0 13.8547 0C14.5619 0 15.2402 0.280951 15.7403 0.781048C16.2404 1.28115 16.5213 1.95942 16.5213 2.66667C16.5213 3.37391 16.2404 4.05219 15.7403 4.55228C15.2402 5.05238 14.5619 5.33333 13.8547 5.33333Z" fill="url(#paint0_linear_42_198)"/>
<defs>
<linearGradient id="paint0_linear_42_198" x1="1.0165e-06" y1="14.3333" x2="18.9887" y2="10.0926" gradientUnits="userSpaceOnUse">
<stop stop-color="#FF52AF"/>
<stop offset="1" stop-color="#9F53FF"/>
</linearGradient>
</defs>
</svg>
