<svg width="53" height="24" viewBox="0 0 53 24" fill="none" xmlns="http://www.w3.org/2000/svg">
<path d="M5.13602 16.8V15.744C5.66402 15.712 6.04002 15.6 6.26402 15.408C6.48802 15.216 6.63202 14.928 6.69602 14.544C6.76002 14.144 6.79202 13.656 6.79202 13.08L6.81602 10.56L2.54402 3.83999C2.20802 3.27999 1.93602 2.78399 1.72802 2.35199C1.53602 1.91999 1.42402 1.55999 1.39202 1.27199C1.13602 1.28799 0.896022 1.29599 0.672021 1.29599C0.448022 1.29599 0.224021 1.30399 2.14837e-05 1.31999V-1.33514e-05H6.48002V1.05599C5.84002 1.03999 5.36802 1.12799 5.06402 1.31999C4.77602 1.51199 4.64802 1.79199 4.68002 2.15999C4.71202 2.51199 4.87202 2.92799 5.16002 3.40799L7.05602 6.43199C7.18402 6.62399 7.32802 6.84799 7.48802 7.10399C7.64802 7.35999 7.80802 7.62399 7.96802 7.89599C8.14402 8.15199 8.30402 8.41599 8.44802 8.68799H8.49602C8.64002 8.38399 8.80002 8.06399 8.97602 7.72799C9.16802 7.37599 9.36002 6.99199 9.55202 6.57599L11.328 3.19199C11.408 3.03199 11.512 2.83199 11.64 2.59199C11.768 2.35199 11.904 2.11199 12.048 1.87199C12.208 1.61599 12.368 1.40799 12.528 1.24799C12.24 1.26399 11.92 1.27999 11.568 1.29599C11.232 1.29599 10.928 1.30399 10.656 1.31999V-1.33514e-05H15.672V1.05599C14.968 1.11999 14.376 1.38399 13.896 1.84799C13.432 2.29599 12.936 3.00799 12.408 3.98399C11.88 4.99199 11.36 5.98399 10.848 6.95999C10.336 7.91999 9.84002 8.86399 9.36002 9.79199C9.36002 10.048 9.35202 10.376 9.33602 10.776C9.33602 11.176 9.33602 11.576 9.33602 11.976C9.33602 12.376 9.33602 12.728 9.33602 13.032C9.33602 13.32 9.33602 13.504 9.33602 13.584C9.33602 14.016 9.32802 14.408 9.31202 14.76C9.31202 15.096 9.29602 15.368 9.26402 15.576C9.58402 15.544 9.92002 15.528 10.272 15.528C10.64 15.512 10.96 15.496 11.232 15.48V16.8H5.13602ZM20.7195 17.184C19.5835 17.184 18.5595 16.928 17.6475 16.416C16.7355 15.904 16.0075 15.192 15.4635 14.28C14.9355 13.352 14.6715 12.288 14.6715 11.088C14.6715 9.79199 14.9355 8.64799 15.4635 7.65599C16.0075 6.64799 16.7355 5.85599 17.6475 5.27999C18.5595 4.70399 19.5755 4.41599 20.6955 4.41599C21.8315 4.41599 22.8555 4.67999 23.7675 5.20799C24.6795 5.71999 25.3995 6.43999 25.9275 7.36799C26.4715 8.27999 26.7435 9.33599 26.7435 10.536C26.7435 11.8 26.4795 12.936 25.9515 13.944C25.4235 14.952 24.7035 15.744 23.7915 16.32C22.8955 16.896 21.8715 17.184 20.7195 17.184ZM20.8875 15.984C21.6555 15.968 22.2555 15.728 22.6875 15.264C23.1355 14.8 23.4555 14.208 23.6475 13.488C23.8395 12.752 23.9355 11.992 23.9355 11.208C23.9355 10.52 23.8715 9.84799 23.7435 9.19199C23.6315 8.51999 23.4475 7.91199 23.1915 7.36799C22.9355 6.82399 22.5995 6.39199 22.1835 6.07199C21.7675 5.73599 21.2635 5.57599 20.6715 5.59199C19.9195 5.59199 19.3035 5.82399 18.8235 6.28799C18.3595 6.75199 18.0155 7.35199 17.7915 8.08799C17.5835 8.80799 17.4795 9.57599 17.4795 10.392C17.4795 11.336 17.5995 12.232 17.8395 13.08C18.0795 13.928 18.4475 14.624 18.9435 15.168C19.4555 15.712 20.1035 15.984 20.8875 15.984ZM34.258 23.304C32.85 23.304 31.714 23.144 30.85 22.824C30.002 22.52 29.386 22.12 29.002 21.624C28.634 21.144 28.45 20.632 28.45 20.088C28.45 19.656 28.546 19.256 28.738 18.888C28.946 18.52 29.218 18.192 29.554 17.904C29.89 17.632 30.266 17.416 30.682 17.256C30.122 17.08 29.698 16.832 29.41 16.512C29.122 16.176 28.978 15.768 28.978 15.288C28.978 14.776 29.178 14.272 29.578 13.776C29.994 13.28 30.586 12.944 31.354 12.768C30.634 12.448 30.058 11.984 29.626 11.376C29.194 10.768 28.97 10.048 28.954 9.21599C28.938 8.25599 29.178 7.41599 29.674 6.69599C30.186 5.97599 30.834 5.41599 31.618 5.01599C32.418 4.61599 33.25 4.41599 34.114 4.41599C34.61 4.41599 35.122 4.48799 35.65 4.63199C36.178 4.75999 36.658 4.96799 37.09 5.25599C37.266 4.79199 37.498 4.36799 37.786 3.98399C38.074 3.59999 38.41 3.29599 38.794 3.07199C39.194 2.84799 39.61 2.73599 40.042 2.73599C40.506 2.73599 40.858 2.85599 41.098 3.09599C41.338 3.33599 41.458 3.65599 41.458 4.05599C41.458 4.18399 41.418 4.34399 41.338 4.53599C41.274 4.71199 41.154 4.86399 40.978 4.99199C40.802 5.11999 40.562 5.18399 40.258 5.18399C40.002 5.18399 39.77 5.10399 39.562 4.94399C39.37 4.76799 39.25 4.55999 39.202 4.31999C38.866 4.38399 38.586 4.58399 38.362 4.91999C38.154 5.23999 38.018 5.56799 37.954 5.90399C38.37 6.27199 38.69 6.71199 38.914 7.22399C39.154 7.71999 39.274 8.25599 39.274 8.83199C39.274 9.74399 39.026 10.552 38.53 11.256C38.05 11.96 37.418 12.512 36.634 12.912C35.85 13.312 35.002 13.512 34.09 13.512C33.818 13.512 33.562 13.496 33.322 13.464C33.082 13.416 32.818 13.392 32.53 13.392C32.018 13.392 31.594 13.512 31.258 13.752C30.938 13.992 30.818 14.28 30.898 14.616C30.978 14.968 31.314 15.2 31.906 15.312C32.498 15.424 33.354 15.504 34.474 15.552C35.706 15.6 36.762 15.752 37.642 16.008C38.538 16.248 39.226 16.624 39.706 17.136C40.202 17.648 40.45 18.344 40.45 19.224C40.45 19.88 40.266 20.464 39.898 20.976C39.546 21.488 39.066 21.912 38.458 22.248C37.866 22.6 37.202 22.864 36.466 23.04C35.73 23.216 34.994 23.304 34.258 23.304ZM34.474 22.128C35.77 22.128 36.77 21.888 37.474 21.408C38.194 20.928 38.554 20.384 38.554 19.776C38.554 19.264 38.378 18.864 38.026 18.576C37.674 18.304 37.178 18.104 36.538 17.976C35.914 17.864 35.178 17.8 34.33 17.784C33.914 17.752 33.49 17.728 33.058 17.712C32.626 17.696 32.226 17.656 31.858 17.592C31.49 17.848 31.202 18.16 30.994 18.528C30.802 18.896 30.698 19.28 30.682 19.68C30.682 20.416 31.026 21.008 31.714 21.456C32.402 21.904 33.322 22.128 34.474 22.128ZM34.162 12.384C34.706 12.384 35.154 12.248 35.506 11.976C35.874 11.688 36.146 11.312 36.322 10.848C36.514 10.368 36.61 9.84799 36.61 9.28799C36.61 8.63199 36.514 8.01599 36.322 7.43999C36.13 6.86399 35.85 6.39999 35.482 6.04799C35.114 5.69599 34.642 5.51999 34.066 5.51999C33.282 5.51999 32.674 5.83199 32.242 6.45599C31.81 7.07999 31.594 7.83199 31.594 8.71199C31.594 9.41599 31.69 10.048 31.882 10.608C32.09 11.152 32.386 11.584 32.77 11.904C33.154 12.224 33.618 12.384 34.162 12.384ZM49.0121 16.8C48.9801 16.544 48.9561 16.32 48.9401 16.128C48.9241 15.936 48.9001 15.736 48.8681 15.528C48.3241 16.072 47.7401 16.488 47.1161 16.776C46.4921 17.048 45.8441 17.184 45.1721 17.184C44.0201 17.184 43.1481 16.904 42.5561 16.344C41.9801 15.768 41.6921 15.056 41.6921 14.208C41.6921 13.472 41.9081 12.832 42.3401 12.288C42.7721 11.744 43.3401 11.304 44.0441 10.968C44.7481 10.616 45.5161 10.36 46.3481 10.2C47.1801 10.024 47.9961 9.93599 48.7961 9.93599V8.51999C48.7961 8.00799 48.7481 7.53599 48.6521 7.10399C48.5561 6.65599 48.3561 6.29599 48.0521 6.02399C47.7641 5.73599 47.3081 5.59199 46.6841 5.59199C46.2681 5.57599 45.8521 5.65599 45.4361 5.83199C45.0201 5.99199 44.7001 6.26399 44.4761 6.64799C44.6041 6.77599 44.6841 6.92799 44.7161 7.10399C44.7641 7.26399 44.7881 7.41599 44.7881 7.55999C44.7881 7.78399 44.6921 8.03999 44.5001 8.32799C44.3081 8.59999 43.9801 8.72799 43.5161 8.71199C43.1321 8.71199 42.8361 8.58399 42.6281 8.32799C42.4361 8.05599 42.3401 7.74399 42.3401 7.39199C42.3401 6.81599 42.5481 6.30399 42.9641 5.85599C43.3961 5.40799 43.9801 5.05599 44.7161 4.79999C45.4521 4.54399 46.2761 4.41599 47.1881 4.41599C48.5641 4.41599 49.5881 4.77599 50.2601 5.49599C50.9481 6.21599 51.2921 7.35199 51.2921 8.90399C51.2921 9.47999 51.2921 10.032 51.2921 10.56C51.2921 11.088 51.2841 11.616 51.2681 12.144C51.2681 12.672 51.2681 13.232 51.2681 13.824C51.2681 14.064 51.2601 14.336 51.2441 14.64C51.2281 14.944 51.2041 15.264 51.1721 15.6C51.4441 15.584 51.7241 15.568 52.0121 15.552C52.3001 15.536 52.5721 15.528 52.8281 15.528V16.8H49.0121ZM48.7961 11.04C48.2841 11.072 47.7561 11.144 47.2121 11.256C46.6841 11.368 46.2041 11.536 45.7721 11.76C45.3401 11.984 44.9881 12.272 44.7161 12.624C44.4601 12.976 44.3321 13.4 44.3321 13.896C44.3641 14.44 44.5401 14.84 44.8601 15.096C45.1961 15.352 45.5881 15.48 46.0361 15.48C46.5961 15.48 47.0921 15.376 47.5241 15.168C47.9561 14.944 48.3801 14.64 48.7961 14.256C48.7801 14.08 48.7721 13.904 48.7721 13.728C48.7721 13.536 48.7721 13.336 48.7721 13.128C48.7721 12.984 48.7721 12.72 48.7721 12.336C48.7881 11.936 48.7961 11.504 48.7961 11.04Z" fill="url(#paint0_linear_304_126)"/>
<defs>
<linearGradient id="paint0_linear_304_126" x1="0.0720241" y1="8.29999" x2="39.8583" y2="-12.6413" gradientUnits="userSpaceOnUse">
<stop stop-color="#FF52AF"/>
<stop offset="1" stop-color="#9F53FF"/>
</linearGradient>
</defs>
</svg>
