<svg width="53" height="24" viewBox="0 0 53 24" fill="none" xmlns="http://www.w3.org/2000/svg">
<path d="M5.30404 16.8V16.008C5.91204 15.976 6.32004 15.832 6.52804 15.576C6.75204 15.32 6.87204 14.976 6.88804 14.544C6.92004 14.096 6.93604 13.6 6.93604 13.056L6.96004 10.32L2.78404 3.72005C2.38404 3.08005 2.08004 2.54405 1.87204 2.11205C1.68004 1.68005 1.55204 1.31205 1.48804 1.00805C1.23204 1.02405 0.984043 1.03205 0.744043 1.03205C0.504043 1.03205 0.256043 1.04005 4.29675e-05 1.05605V4.76837e-05H6.19204V0.792048C5.45604 0.792048 4.94404 0.904047 4.65604 1.12805C4.36804 1.35205 4.25604 1.66405 4.32004 2.06405C4.40004 2.44805 4.60004 2.89605 4.92004 3.40805L6.84004 6.43205C6.98404 6.65605 7.13604 6.88805 7.29604 7.12805C7.45604 7.36805 7.61604 7.61605 7.77604 7.87205C7.95204 8.11205 8.13604 8.36805 8.32804 8.64005H8.37604C8.55204 8.28805 8.72804 7.95205 8.90404 7.63205C9.08004 7.29605 9.24804 6.97605 9.40804 6.67205L11.448 2.80805C11.528 2.64805 11.624 2.46405 11.736 2.25605C11.864 2.03205 12 1.80805 12.144 1.58405C12.288 1.34405 12.44 1.14405 12.6 0.984048C12.296 1.00005 11.984 1.01605 11.664 1.03205C11.344 1.03205 11.024 1.04005 10.704 1.05605V4.76837e-05H15.6V0.792048C14.816 0.840048 14.168 1.11205 13.656 1.60805C13.16 2.10405 12.632 2.86405 12.072 3.88805C11.528 4.91205 11 5.89605 10.488 6.84005C9.99204 7.78405 9.51204 8.70405 9.04804 9.60005C9.04804 9.88805 9.04004 10.272 9.02404 10.752C9.02404 11.232 9.02404 11.72 9.02404 12.216C9.02404 12.696 9.02404 13.104 9.02404 13.44C9.02404 13.776 9.02404 13.944 9.02404 13.944C9.02404 14.376 9.01604 14.752 9.00004 15.072C9.00004 15.376 8.98404 15.632 8.95204 15.84C9.28804 15.824 9.61604 15.808 9.93604 15.792C10.272 15.776 10.608 15.76 10.944 15.744V16.8H5.30404ZM20.6755 17.184C19.5555 17.184 18.5395 16.928 17.6275 16.416C16.7155 15.888 15.9875 15.168 15.4435 14.256C14.9155 13.328 14.6515 12.272 14.6515 11.088C14.6515 9.82405 14.9155 8.68805 15.4435 7.68005C15.9715 6.67205 16.6915 5.88005 17.6035 5.30405C18.5155 4.71205 19.5395 4.41605 20.6755 4.41605C21.7955 4.41605 22.8115 4.68805 23.7235 5.23205C24.6355 5.76005 25.3635 6.48005 25.9075 7.39205C26.4515 8.30405 26.7235 9.34405 26.7235 10.512C26.7235 11.744 26.4515 12.872 25.9075 13.896C25.3795 14.904 24.6595 15.704 23.7475 16.296C22.8355 16.888 21.8115 17.184 20.6755 17.184ZM20.8675 16.224C21.7155 16.224 22.3875 15.984 22.8835 15.504C23.3795 15.024 23.7315 14.4 23.9395 13.632C24.1635 12.864 24.2755 12.056 24.2755 11.208C24.2755 10.488 24.2035 9.78405 24.0595 9.09605C23.9315 8.39205 23.7235 7.76005 23.4355 7.20005C23.1475 6.62405 22.7715 6.16805 22.3075 5.83205C21.8595 5.49605 21.3155 5.32805 20.6755 5.32805C19.8435 5.32805 19.1635 5.56805 18.6355 6.04805C18.1075 6.52805 17.7155 7.15205 17.4595 7.92005C17.2195 8.68805 17.0995 9.51205 17.0995 10.392C17.0995 11.384 17.2355 12.328 17.5075 13.224C17.7795 14.104 18.1955 14.824 18.7555 15.384C19.3155 15.944 20.0195 16.224 20.8675 16.224ZM34.5465 23.304C33.1065 23.304 31.9465 23.144 31.0665 22.824C30.1865 22.504 29.5465 22.096 29.1465 21.6C28.7465 21.104 28.5465 20.592 28.5465 20.064C28.5465 19.568 28.6585 19.128 28.8825 18.744C29.1225 18.376 29.4105 18.056 29.7465 17.784C30.0985 17.512 30.4345 17.312 30.7545 17.184C30.2425 17.008 29.8345 16.776 29.5305 16.488C29.2425 16.184 29.0985 15.784 29.0985 15.288C29.0985 14.728 29.3225 14.208 29.7705 13.728C30.2185 13.232 30.7945 12.928 31.4985 12.816C30.7625 12.464 30.1705 11.976 29.7225 11.352C29.2905 10.728 29.0745 10 29.0745 9.16805C29.0745 8.20805 29.3225 7.37605 29.8185 6.67205C30.3145 5.95205 30.9465 5.40005 31.7145 5.01605C32.4985 4.61605 33.3065 4.41605 34.1385 4.41605C34.6665 4.41605 35.1945 4.49605 35.7225 4.65605C36.2505 4.80005 36.7385 5.01605 37.1865 5.30405C37.3465 4.85605 37.5705 4.45605 37.8585 4.10405C38.1625 3.75205 38.5065 3.48005 38.8905 3.28805C39.2745 3.08005 39.6745 2.97605 40.0905 2.97605C40.5065 2.97605 40.8185 3.08805 41.0265 3.31205C41.2505 3.52005 41.3625 3.80805 41.3625 4.17605C41.3625 4.28805 41.3305 4.42405 41.2665 4.58405C41.2025 4.74405 41.0905 4.88005 40.9305 4.99205C40.7865 5.10405 40.5865 5.16005 40.3305 5.16005C40.0585 5.16005 39.8345 5.08005 39.6585 4.92005C39.4825 4.76005 39.3705 4.56005 39.3225 4.32005C38.9225 4.38405 38.6105 4.57605 38.3865 4.89605C38.1625 5.20005 38.0105 5.53605 37.9305 5.90405C38.3145 6.25605 38.6185 6.68005 38.8425 7.17605C39.0825 7.67205 39.2025 8.20005 39.2025 8.76005C39.2025 9.65605 38.9625 10.456 38.4825 11.16C38.0185 11.864 37.4025 12.416 36.6345 12.816C35.8665 13.2 35.0345 13.392 34.1385 13.392C33.8345 13.392 33.5705 13.376 33.3465 13.344C33.1225 13.296 32.8505 13.272 32.5305 13.272C31.9385 13.272 31.4585 13.416 31.0905 13.704C30.7225 13.992 30.5945 14.336 30.7065 14.736C30.8345 15.12 31.2265 15.368 31.8825 15.48C32.5385 15.576 33.4185 15.648 34.5225 15.696C35.7545 15.744 36.8105 15.888 37.6905 16.128C38.5705 16.368 39.2425 16.736 39.7065 17.232C40.1865 17.744 40.4265 18.432 40.4265 19.296C40.4265 19.936 40.2505 20.504 39.8985 21C39.5625 21.512 39.1065 21.936 38.5305 22.272C37.9705 22.608 37.3385 22.864 36.6345 23.04C35.9465 23.216 35.2505 23.304 34.5465 23.304ZM34.5225 22.368C35.8985 22.368 36.9705 22.112 37.7385 21.6C38.5065 21.088 38.8905 20.488 38.8905 19.8C38.8905 19.208 38.6905 18.752 38.2905 18.432C37.8905 18.128 37.3465 17.912 36.6585 17.784C35.9705 17.672 35.1785 17.608 34.2825 17.592C33.8505 17.576 33.4265 17.552 33.0105 17.52C32.5945 17.504 32.1945 17.464 31.8105 17.4C31.3785 17.688 31.0425 18.04 30.8025 18.456C30.5625 18.872 30.4425 19.312 30.4425 19.776C30.4425 20.56 30.8105 21.184 31.5465 21.648C32.2985 22.128 33.2905 22.368 34.5225 22.368ZM34.2105 12.528C34.8025 12.528 35.2905 12.384 35.6745 12.096C36.0745 11.808 36.3705 11.416 36.5625 10.92C36.7705 10.424 36.8745 9.86405 36.8745 9.24005C36.8745 8.53605 36.7705 7.88005 36.5625 7.27205C36.3545 6.66405 36.0425 6.17605 35.6265 5.80805C35.2265 5.44005 34.7145 5.25605 34.0905 5.25605C33.2265 5.25605 32.5545 5.58405 32.0745 6.24005C31.6105 6.88005 31.3785 7.68005 31.3785 8.64005C31.3785 9.40805 31.4905 10.088 31.7145 10.68C31.9385 11.256 32.2585 11.712 32.6745 12.048C33.1065 12.368 33.6185 12.528 34.2105 12.528ZM49.3242 16.8C49.2762 16.528 49.2442 16.288 49.2282 16.08C49.2122 15.872 49.1882 15.656 49.1562 15.432C48.6122 15.976 48.0202 16.408 47.3802 16.728C46.7562 17.032 46.0922 17.184 45.3882 17.184C44.1722 17.184 43.2682 16.912 42.6762 16.368C42.0842 15.808 41.7882 15.128 41.7882 14.328C41.7882 13.592 42.0122 12.96 42.4602 12.432C42.9242 11.888 43.5162 11.448 44.2362 11.112C44.9722 10.76 45.7642 10.504 46.6122 10.344C47.4762 10.168 48.3082 10.088 49.1082 10.104V8.61605C49.1082 8.05605 49.0602 7.52805 48.9642 7.03205C48.8682 6.53605 48.6602 6.12805 48.3402 5.80805C48.0202 5.48805 47.5082 5.32005 46.8042 5.30405C46.3402 5.28805 45.8602 5.37605 45.3642 5.56805C44.8842 5.76005 44.5322 6.08805 44.3082 6.55205C44.4362 6.68005 44.5162 6.83205 44.5482 7.00805C44.5962 7.16805 44.6202 7.32005 44.6202 7.46405C44.6202 7.65605 44.5402 7.88005 44.3802 8.13605C44.2202 8.37605 43.9402 8.48805 43.5402 8.47205C43.2042 8.47205 42.9482 8.36005 42.7722 8.13605C42.5962 7.89605 42.5082 7.61605 42.5082 7.29605C42.5082 6.75205 42.7082 6.26405 43.1082 5.83205C43.5242 5.40005 44.0922 5.05605 44.8122 4.80005C45.5322 4.54405 46.3482 4.41605 47.2602 4.41605C48.6042 4.41605 49.5962 4.77605 50.2362 5.49605C50.8762 6.20005 51.1882 7.32005 51.1722 8.85605C51.1722 9.44805 51.1722 10.048 51.1722 10.656C51.1722 11.248 51.1642 11.848 51.1482 12.456C51.1482 13.048 51.1482 13.648 51.1482 14.256C51.1482 14.512 51.1402 14.768 51.1242 15.024C51.1082 15.28 51.0842 15.568 51.0522 15.888C51.3402 15.872 51.6202 15.856 51.8922 15.84C52.1802 15.824 52.4682 15.808 52.7562 15.792V16.8H49.3242ZM49.1082 10.92C48.5642 10.936 47.9882 11.008 47.3802 11.136C46.7882 11.248 46.2362 11.424 45.7242 11.664C45.2282 11.904 44.8202 12.224 44.5002 12.624C44.1962 13.008 44.0522 13.48 44.0682 14.04C44.1002 14.632 44.2922 15.08 44.6442 15.384C45.0122 15.672 45.4442 15.816 45.9402 15.816C46.5962 15.816 47.1642 15.696 47.6442 15.456C48.1402 15.2 48.6282 14.848 49.1082 14.4C49.0922 14.224 49.0842 14.032 49.0842 13.824C49.0842 13.616 49.0842 13.4 49.0842 13.176C49.0842 13.096 49.0842 12.84 49.0842 12.408C49.1002 11.976 49.1082 11.48 49.1082 10.92Z" fill="url(#paint0_linear_45_36)"/>
<defs>
<linearGradient id="paint0_linear_45_36" x1="0.144046" y1="8.30005" x2="39.9303" y2="-12.6412" gradientUnits="userSpaceOnUse">
<stop stop-color="#FF52AF"/>
<stop offset="1" stop-color="#9F53FF"/>
</linearGradient>
</defs>
</svg>
